<mxfile host="app.diagrams.net" modified="2023-04-05T08:26:31.580Z" agent="5.0 (Windows NT 10.0; Win64; x64) AppleWebKit/537.36 (KHTML, like Gecko) Chrome/111.0.0.0 Safari/537.36" etag="VbehyR0Poqk9ms2ai6Sj" version="20.5.1" type="github">
  <diagram id="Fwb5VQjIPEliirDGAg5w" name="Seite-1">
    <mxGraphModel dx="870" dy="586" grid="1" gridSize="10" guides="1" tooltips="1" connect="1" arrows="1" fold="1" page="1" pageScale="1" pageWidth="827" pageHeight="1169" math="0" shadow="0">
      <root>
        <mxCell id="0" />
        <mxCell id="1" parent="0" />
        <mxCell id="92QDZ49IJH0Nqy0yfbdb-6" style="edgeStyle=orthogonalEdgeStyle;orthogonalLoop=1;jettySize=auto;html=1;exitX=0.5;exitY=0;exitDx=0;exitDy=0;entryX=0.5;entryY=1;entryDx=0;entryDy=0;strokeColor=default;curved=1;endArrow=none;endFill=0;startArrow=classic;startFill=1;" edge="1" parent="1" source="92QDZ49IJH0Nqy0yfbdb-1" target="92QDZ49IJH0Nqy0yfbdb-5">
          <mxGeometry relative="1" as="geometry" />
        </mxCell>
        <mxCell id="92QDZ49IJH0Nqy0yfbdb-13" style="edgeStyle=orthogonalEdgeStyle;curved=1;orthogonalLoop=1;jettySize=auto;html=1;exitX=0.5;exitY=1;exitDx=0;exitDy=0;entryX=0.5;entryY=0;entryDx=0;entryDy=0;strokeColor=default;startArrow=none;startFill=0;endArrow=classic;endFill=1;" edge="1" parent="1" source="92QDZ49IJH0Nqy0yfbdb-1" target="92QDZ49IJH0Nqy0yfbdb-12">
          <mxGeometry relative="1" as="geometry" />
        </mxCell>
        <mxCell id="92QDZ49IJH0Nqy0yfbdb-1" value="Age/ Gender&lt;br&gt;Script" style="ellipse;whiteSpace=wrap;html=1;aspect=fixed;" vertex="1" parent="1">
          <mxGeometry x="100" y="180" width="80" height="80" as="geometry" />
        </mxCell>
        <mxCell id="92QDZ49IJH0Nqy0yfbdb-9" style="edgeStyle=orthogonalEdgeStyle;curved=1;orthogonalLoop=1;jettySize=auto;html=1;exitX=0.5;exitY=0;exitDx=0;exitDy=0;strokeColor=default;endArrow=none;endFill=0;entryX=0.5;entryY=1;entryDx=0;entryDy=0;startArrow=classic;startFill=1;" edge="1" parent="1" source="92QDZ49IJH0Nqy0yfbdb-2" target="92QDZ49IJH0Nqy0yfbdb-5">
          <mxGeometry relative="1" as="geometry">
            <mxPoint x="430" y="150" as="targetPoint" />
          </mxGeometry>
        </mxCell>
        <mxCell id="92QDZ49IJH0Nqy0yfbdb-16" style="edgeStyle=orthogonalEdgeStyle;curved=1;orthogonalLoop=1;jettySize=auto;html=1;exitX=0.5;exitY=1;exitDx=0;exitDy=0;strokeColor=default;startArrow=none;startFill=0;endArrow=classic;endFill=1;entryX=0.5;entryY=0;entryDx=0;entryDy=0;" edge="1" parent="1" source="92QDZ49IJH0Nqy0yfbdb-2" target="92QDZ49IJH0Nqy0yfbdb-12">
          <mxGeometry relative="1" as="geometry">
            <mxPoint x="420" y="320" as="targetPoint" />
          </mxGeometry>
        </mxCell>
        <mxCell id="92QDZ49IJH0Nqy0yfbdb-2" value="Personality&lt;br&gt;Script" style="ellipse;whiteSpace=wrap;html=1;aspect=fixed;" vertex="1" parent="1">
          <mxGeometry x="480" y="180" width="80" height="80" as="geometry" />
        </mxCell>
        <mxCell id="92QDZ49IJH0Nqy0yfbdb-7" style="edgeStyle=orthogonalEdgeStyle;curved=1;orthogonalLoop=1;jettySize=auto;html=1;exitX=0.5;exitY=0;exitDx=0;exitDy=0;entryX=0.5;entryY=1;entryDx=0;entryDy=0;strokeColor=default;endArrow=none;endFill=0;startArrow=classic;startFill=1;" edge="1" parent="1" source="92QDZ49IJH0Nqy0yfbdb-3" target="92QDZ49IJH0Nqy0yfbdb-5">
          <mxGeometry relative="1" as="geometry" />
        </mxCell>
        <mxCell id="92QDZ49IJH0Nqy0yfbdb-14" style="edgeStyle=orthogonalEdgeStyle;curved=1;orthogonalLoop=1;jettySize=auto;html=1;exitX=0.5;exitY=1;exitDx=0;exitDy=0;entryX=0.5;entryY=0;entryDx=0;entryDy=0;strokeColor=default;startArrow=none;startFill=0;endArrow=classic;endFill=1;" edge="1" parent="1" source="92QDZ49IJH0Nqy0yfbdb-3" target="92QDZ49IJH0Nqy0yfbdb-12">
          <mxGeometry relative="1" as="geometry" />
        </mxCell>
        <mxCell id="92QDZ49IJH0Nqy0yfbdb-3" value="Political Leaning&lt;br&gt;Script" style="ellipse;whiteSpace=wrap;html=1;aspect=fixed;" vertex="1" parent="1">
          <mxGeometry x="290" y="180" width="80" height="80" as="geometry" />
        </mxCell>
        <mxCell id="92QDZ49IJH0Nqy0yfbdb-10" style="edgeStyle=orthogonalEdgeStyle;curved=1;orthogonalLoop=1;jettySize=auto;html=1;exitX=0.5;exitY=0;exitDx=0;exitDy=0;entryX=0.5;entryY=1;entryDx=0;entryDy=0;strokeColor=default;endArrow=none;endFill=0;startArrow=classic;startFill=1;" edge="1" parent="1" source="92QDZ49IJH0Nqy0yfbdb-4" target="92QDZ49IJH0Nqy0yfbdb-5">
          <mxGeometry relative="1" as="geometry" />
        </mxCell>
        <mxCell id="92QDZ49IJH0Nqy0yfbdb-17" style="edgeStyle=orthogonalEdgeStyle;curved=1;orthogonalLoop=1;jettySize=auto;html=1;exitX=0.5;exitY=1;exitDx=0;exitDy=0;entryX=0.5;entryY=0;entryDx=0;entryDy=0;strokeColor=default;startArrow=none;startFill=0;endArrow=classic;endFill=1;" edge="1" parent="1" source="92QDZ49IJH0Nqy0yfbdb-4" target="92QDZ49IJH0Nqy0yfbdb-12">
          <mxGeometry relative="1" as="geometry" />
        </mxCell>
        <mxCell id="92QDZ49IJH0Nqy0yfbdb-4" value="Nationality&lt;br&gt;Script" style="ellipse;whiteSpace=wrap;html=1;aspect=fixed;" vertex="1" parent="1">
          <mxGeometry x="650" y="180" width="80" height="80" as="geometry" />
        </mxCell>
        <mxCell id="92QDZ49IJH0Nqy0yfbdb-5" value="Reddit month collection&amp;nbsp;" style="rounded=0;whiteSpace=wrap;html=1;" vertex="1" parent="1">
          <mxGeometry x="170" y="30" width="490" height="80" as="geometry" />
        </mxCell>
        <mxCell id="92QDZ49IJH0Nqy0yfbdb-19" style="edgeStyle=orthogonalEdgeStyle;curved=1;orthogonalLoop=1;jettySize=auto;html=1;exitX=0.75;exitY=0;exitDx=0;exitDy=0;entryX=0.419;entryY=0;entryDx=0;entryDy=0;entryPerimeter=0;strokeColor=default;startArrow=none;startFill=0;endArrow=classic;endFill=1;" edge="1" parent="1" source="92QDZ49IJH0Nqy0yfbdb-12" target="92QDZ49IJH0Nqy0yfbdb-18">
          <mxGeometry relative="1" as="geometry">
            <Array as="points">
              <mxPoint x="462" y="350" />
              <mxPoint x="674" y="350" />
            </Array>
          </mxGeometry>
        </mxCell>
        <mxCell id="92QDZ49IJH0Nqy0yfbdb-12" value="labelled_authors_intermediate" style="rounded=0;whiteSpace=wrap;html=1;" vertex="1" parent="1">
          <mxGeometry x="319" y="380" width="190" height="60" as="geometry" />
        </mxCell>
        <mxCell id="92QDZ49IJH0Nqy0yfbdb-20" style="edgeStyle=orthogonalEdgeStyle;curved=1;orthogonalLoop=1;jettySize=auto;html=1;exitX=0.5;exitY=1;exitDx=0;exitDy=0;entryX=0.75;entryY=1;entryDx=0;entryDy=0;strokeColor=default;startArrow=none;startFill=0;endArrow=classic;endFill=1;" edge="1" parent="1" source="92QDZ49IJH0Nqy0yfbdb-18" target="92QDZ49IJH0Nqy0yfbdb-12">
          <mxGeometry relative="1" as="geometry">
            <Array as="points">
              <mxPoint x="680" y="470" />
              <mxPoint x="462" y="470" />
            </Array>
          </mxGeometry>
        </mxCell>
        <mxCell id="92QDZ49IJH0Nqy0yfbdb-18" value="Merge Authors&lt;br&gt;Script" style="ellipse;whiteSpace=wrap;html=1;aspect=fixed;" vertex="1" parent="1">
          <mxGeometry x="640" y="370" width="80" height="80" as="geometry" />
        </mxCell>
      </root>
    </mxGraphModel>
  </diagram>
</mxfile>
